<?xml version="1.0" encoding="UTF-8" standalone="no"?>
<svg
   xmlns:dc="http://purl.org/dc/elements/1.1/"
   xmlns:cc="http://creativecommons.org/ns#"
   xmlns:rdf="http://www.w3.org/1999/02/22-rdf-syntax-ns#"
   xmlns:svg="http://www.w3.org/2000/svg"
   xmlns="http://www.w3.org/2000/svg"
   xmlns:sodipodi="http://sodipodi.sourceforge.net/DTD/sodipodi-0.dtd"
   xmlns:inkscape="http://www.inkscape.org/namespaces/inkscape"
   width="400"
   height="400"
   viewBox="0 0 105.83333 105.83333"
   version="1.1"
   id="svg8"
   inkscape:version="1.0.2 (e86c8708, 2021-01-15)"
   sodipodi:docname="icon.svg">
  <defs
     id="defs2">
    <inkscape:path-effect
       effect="spiro"
       id="path-effect1337"
       is_visible="true"
       lpeversion="1" />
    <inkscape:path-effect
       effect="spiro"
       id="path-effect1333"
       is_visible="true"
       lpeversion="1" />
    <inkscape:path-effect
       effect="spiro"
       id="path-effect1329"
       is_visible="true"
       lpeversion="1" />
    <inkscape:path-effect
       effect="spiro"
       id="path-effect1321"
       is_visible="true"
       lpeversion="1" />
  </defs>
  <sodipodi:namedview
     id="base"
     pagecolor="#ffffff"
     bordercolor="#666666"
     borderopacity="1.0"
     inkscape:pageopacity="0.0"
     inkscape:pageshadow="2"
     inkscape:zoom="7.9336929"
     inkscape:cx="24.966728"
     inkscape:cy="102.82636"
     inkscape:document-units="mm"
     inkscape:current-layer="layer1"
     inkscape:document-rotation="0"
     showgrid="false"
     units="px"
     inkscape:window-width="2560"
     inkscape:window-height="1387"
     inkscape:window-x="1440"
     inkscape:window-y="636"
     inkscape:window-maximized="1" />
  <metadata
     id="metadata5">
    <rdf:RDF>
      <cc:Work
         rdf:about="">
        <dc:format>image/svg+xml</dc:format>
        <dc:type
           rdf:resource="http://purl.org/dc/dcmitype/StillImage" />
        <dc:title></dc:title>
      </cc:Work>
    </rdf:RDF>
  </metadata>
  <g
     inkscape:groupmode="layer"
     id="layer2"
     inkscape:label="Background">
    <rect
       style="fill:#80b3ff;stroke:none;stroke-width:1;stroke-linecap:round;stroke-linejoin:round;paint-order:fill markers stroke"
       id="rect1257"
       width="106.64054"
       height="106.64054"
       x="0"
       y="0" />
  </g>
  <g
     inkscape:label="Layer 1"
     inkscape:groupmode="layer"
     id="layer1">
    <g
       id="g1252"
       transform="matrix(0.87583654,0,0,0.79852163,-42.882246,-75.802331)">
      <path
         id="path919"
         style="fill:#000000;stroke-width:0.999999"
         transform="scale(0.26458333)"
         d="m 547.67773,498.27734 c -0.96122,-0.0177 -1.94067,0.0331 -2.92187,0.16407 -6.20772,0.8287 -33.52602,2.42613 -54.25586,3.17187 -9.89998,0.35615 -18.78345,1.05274 -19.74023,1.54688 -0.95679,0.49413 -10.85679,1.31835 -22,1.83203 -34.42012,1.58661 -65.79706,4.4559 -88.25977,8.07226 -11.70328,1.88417 -33.19797,5.00327 -47.5,6.89258 -18.32031,2.42018 -23.14152,3.24883 -41,7.04102 -16.18229,3.43623 -34.12455,6.70204 -44.10156,8.02929 -8.43969,1.12275 -11.76436,2.66944 -12.67188,5.89258 -1.19678,4.25057 -0.49451,21.29652 1.26758,30.74024 0.90705,4.86122 3.39547,14.14616 5.5293,20.63281 2.13383,6.48669 3.6427,12.41325 3.35156,13.17187 -1.22861,3.20172 3.21589,3.74309 20.46484,2.48828 9.16318,-0.66619 17.08688,-1.60481 17.60938,-2.08398 0.5225,-0.47917 5.65486,-0.87109 11.4043,-0.87109 9.02186,0 11.16438,-0.33516 15.64062,-2.45313 l 5.18555,-2.45312 3.91015,1.92578 c 3.08233,1.51839 7.10216,2.06858 18.98828,2.59961 9.80181,0.43774 15.72591,0.31038 16.92969,-0.36328 1.39929,-0.78308 2.7859,-0.54833 5.67774,0.95898 2.69808,1.40621 5.0786,1.86039 8.07031,1.54102 2.33387,-0.24926 10.31914,-0.0698 17.74414,0.39843 7.425,0.46825 21.27489,1.05644 30.77734,1.30664 9.50245,0.2504 17.70483,0.71945 18.22852,1.04297 0.52365,0.32368 1.89059,0.0863 3.03711,-0.52734 1.53555,-0.81989 2.44028,-0.82501 3.43555,0.008 0.74309,0.61675 5.55128,1.55432 10.68554,2.08399 5.13423,0.52966 10.1085,1.20803 11.05274,1.50586 0.9442,0.29805 4.21339,0.0799 7.26562,-0.48438 3.25769,-0.60215 6.48891,-0.66977 7.82422,-0.16211 1.2511,0.47569 5.7855,1.13766 10.07617,1.46875 4.29067,0.3312 8.32217,0.93231 8.95899,1.33789 0.63677,0.40558 5.65819,0.83073 11.1582,0.94336 5.50001,0.11248 21.475,1.077 35.5,2.14453 14.025,1.06753 26.87185,1.73208 28.54883,1.47657 1.83605,-0.27995 3.42736,-1.30455 4,-2.57618 1.084,-2.40714 33.93375,-33.7207 35.375,-33.7207 0.51885,0 1.08591,1.20403 1.25976,2.67578 0.20485,1.73235 1.34841,3.24503 3.24414,4.29102 l 2.92774,1.61718 0.0937,12.70118 c 0.0515,6.98562 -0.22637,12.81567 -0.61914,12.95703 -0.73837,0.266 -1.75426,43.35132 -1.95117,82.75781 -0.067,13.40916 -0.5199,23.00506 -1.11914,23.75 -0.0877,0.10899 -0.20346,0.21306 -0.33594,0.3125 0.11431,0.58668 0.24099,1.17203 0.30469,1.76562 0.15855,1.47463 0.17841,2.90013 -0.40235,4.27735 -0.0625,0.14818 -0.1132,0.22572 -0.16211,0.30078 0.0567,0.41895 0.0981,0.82773 0.0762,1.26367 0.004,0.76951 0.007,1.5392 -0.0117,2.3086 0.0442,1.08015 0.13417,2.16475 -0.0449,3.24218 -0.18557,0.43745 -0.0948,0.80619 -0.13671,1.27735 -0.0348,0.39174 -0.0885,0.78196 -0.16407,1.16797 -0.0185,0.0937 -0.034,0.2134 -0.11523,0.26367 -0.0491,0.0306 -0.0199,-0.11481 -0.0312,-0.17188 4e-5,0.63368 0,1.26672 0,1.90039 0,0.31329 1.1e-4,0.62613 0,0.93946 -3e-4,0.69327 -3.4e-4,1.3868 0,2.08007 0,0.29847 10e-4,0.59595 -0.004,0.89454 0.0179,0.2522 0.0125,0.50366 0.004,0.75585 -0.002,0.0479 -0.008,0.0485 -0.01,0.0898 0.0308,0.009 0.0427,0.0123 0.0742,0.0215 0.21952,0.0637 0.006,0.45689 -0.002,0.68555 -0.0155,0.49829 -0.0369,0.99657 -0.0644,1.49414 -0.0283,0.46051 -0.0702,0.92074 -0.10743,1.38086 H 596 v 5.54297 c 0,3.0486 0.56243,6.14766 1.25,6.88867 0.90977,0.98052 1.44965,1.03626 1.98438,0.20703 0.52892,-0.8205 0.73866,-0.78892 0.75,0.11133 0.008,0.6875 0.51803,1.25 1.13281,1.25 0.81951,0 0.92101,-16.23472 0.37695,-60.85938 l -0.74219,-60.86132 2.73243,-4.66211 c 2.81629,-4.80628 6.13689,-7.44036 7.51562,-5.96094 0.85089,0.91306 1.65866,28.68275 2.52734,86.84375 0.30392,20.35003 0.78773,38.91248 1.07422,41.25 0.48344,3.94348 0.7383,4.25 3.53125,4.25 0.49061,-2.4e-4 0.92984,-0.0245 1.34375,-0.0644 v -0.23438 c 0,-0.47905 0.004,-0.95649 -0.004,-1.43555 -0.009,-0.84923 0.0654,-0.6354 -0.008,-1.125 -0.0567,-0.84689 -0.0824,-1.68121 -0.0234,-2.53124 0.017,-0.24099 0.073,-0.47838 0.0957,-0.71876 0.0556,-0.55232 0.0727,-0.82238 0.0977,-1.14648 -0.0782,-1.5646 -0.15829,-3.58022 -0.23829,-5.73437 -0.0629,-0.39724 -0.1308,-0.79391 -0.17382,-1.19336 -0.0439,-0.408 0,-0.82009 0,-1.23047 v -2.83985 c -0.22873,-7.30253 -0.449,-16.35011 -0.61719,-26.49804 -0.38967,-23.51248 -1.15967,-60.97502 -1.70899,-83.25 -0.54935,-22.27499 -0.99793,-41.40001 -0.99804,-42.5 -1.2e-4,-1.1 0.73609,-2.45001 1.63672,-3 5.03168,-3.07283 4.82497,-2.10821 4.4082,-20.60938 -0.47694,-21.17355 -0.3604,-28.31538 0.53516,-32.91015 0.74536,-3.82409 -1.06164,-6.42242 -4.9668,-7.13868 -1.09368,-0.20061 -2.15282,-1.25983 -2.35352,-2.35351 -0.20061,-1.09368 -0.93373,-2.66329 -1.6289,-3.48828 -0.69517,-0.82504 -1.24937,-3.55986 -1.23047,-6.07617 0.0452,-6.11154 -0.6413,-6.92383 -5.85742,-6.92383 -5.95631,0 -8.77986,2.67661 -7.88086,7.46875 0.63651,3.3928 -1.85953,9.53125 -3.875,9.53125 -0.48575,0 -2.17751,1.3866 -3.75977,3.08007 l -2.87695,3.08008 -5.46875,-5.17382 c -3.00817,-2.84497 -5.86456,-4.92749 -6.34766,-4.62891 -0.4831,0.29858 -4.44181,-3.03916 -8.79492,-7.41797 -6.57498,-6.61376 -7.86374,-8.43291 -7.62109,-10.74609 0.44298,-4.22302 -5.41012,-7.79018 -12.13868,-7.91407 z m 0.85352,2.13672 c 1.90834,0.0654 3.19623,0.41068 4.76563,1.06641 3.86912,1.61677 5.05715,4.78566 2.20312,5.88086 -2.1617,0.82953 -1.84535,3.31439 0.5,3.92773 1.44155,0.37697 2,1.36431 2,3.53516 0,1.65649 0.25289,3.66861 0.56055,4.4707 0.37236,0.97032 -0.29702,1.67222 -2,2.09961 -3.24586,0.81464 -3.26866,2.32455 -0.0606,3.78711 2.21163,1.0077 2.5,1.75389 2.5,6.4707 0,4.67071 -0.37346,5.6656 -3.01758,8.02149 -2.04839,1.82525 -2.69112,3.0159 -2,3.70703 0.56009,0.56013 1.01758,4.50291 1.01758,8.76172 0,6.88751 -0.24866,7.92095 -2.25,9.34961 -2.11019,1.50637 -2.14126,1.68867 -0.5,2.91797 2.40053,1.79788 2.52789,15.07224 0.16992,17.67773 -1.22105,1.34925 -1.33456,2.20424 -0.5,3.76367 0.59384,1.1096 1.08008,3.46882 1.08008,5.24414 0,4.16066 -4.64471,12.25483 -6.60156,11.50391 -0.78671,-0.30187 -13.4607,-1.25959 -28.16406,-2.12695 -14.70373,-0.86733 -27.29688,-1.76473 -27.98438,-1.99414 -0.886,-0.29545 -1.25208,-3.26565 -1.25586,-10.19727 -0.01,-16.18394 -1.06293,-26.46777 -2.58203,-25.20703 -0.0269,0.0223 -0.0449,0.0542 -0.0703,0.0781 0.003,0.0131 0.0105,0.0218 0.0137,0.0352 0.23134,0.0344 0.2339,0.18711 0.13476,0.60938 0.0258,0.22849 0.0222,0.48265 -0.01,0.74023 0.13157,-0.1316 0.23015,-0.21876 0.38672,-0.38867 0.0491,-0.0533 0.0236,0.14461 0.0273,0.21679 0.0215,0.30879 -0.0534,0.22184 -0.11914,0.67969 -0.02,0.1372 0.0695,-0.26817 0.10352,-0.40234 -0.008,-0.15561 -0.0124,0.21705 -0.0117,0.22461 0.0446,0.44069 0.16247,0.77119 -0.0312,1.22851 -0.2073,0.11028 -0.41391,0.2217 -0.61914,0.33594 0.006,0.0449 0.0114,0.0899 0.0176,0.13477 0.0912,-0.0988 0.18466,-0.21469 0.0371,-0.008 -0.0119,0.0168 -0.0197,0.0268 -0.0312,0.043 0.0896,0.65208 0.17274,1.30457 0.25977,1.95703 0.0537,0.40483 0.15896,0.80508 0.18164,1.21289 0.0206,0.34232 0.012,0.68454 0.0195,1.02735 0.0227,0.67113 -0.14104,1.39075 -0.0801,2.05859 0.0794,0.86423 0.0987,0.15133 0.21289,0.83399 0.0529,0.31665 0.0755,0.63608 0.11329,0.95507 -0.0127,1.08683 -0.0587,2.17078 -0.0605,3.25782 0.17829,0.22884 0.24507,0.45159 0.008,0.58203 -0.004,0.002 -0.008,0.004 -0.0117,0.006 -0.005,0.10679 -0.0353,0.18345 -0.084,0.23633 0.11059,1.01682 -0.13958,2.03823 -0.4043,3.01171 -0.0486,0.17689 -0.0822,0.24034 -0.12109,0.33204 v 0.18945 c -0.13147,0.0909 -0.0823,0.005 0,-0.18945 l -0.002,-0.46094 c -0.005,-1.20562 -0.28242,-1.4719 -0.69921,-1.26953 -0.006,0.37879 -7.3e-4,0.75747 0.0371,1.12695 0.2222,2.18725 0.0453,-1.04824 0.23242,2.04492 0.004,0.0918 -0.01,0.18355 -0.0176,0.27539 -0.048,0.44916 0.0951,0.77578 0.2168,1.20313 0.18077,0.6353 0.25821,1.12723 0.38671,1.78906 0.37414,2.35446 0.70324,4.64638 0.63672,7.04687 -0.0181,0.6542 -0.13875,1.30179 -0.23437,1.94922 -0.0664,0.44931 -0.0753,0.46839 -0.11914,0.76563 0.47311,0.74743 0.53438,1.20653 -0.16602,1.07031 -0.11254,0.65404 -0.22531,1.12075 -0.57812,2.41211 -0.0913,0.25969 -0.18238,0.51949 -0.27344,0.7793 -0.0138,0.3164 -0.0343,0.63292 -0.0781,0.94922 -0.0423,0.30444 -0.15103,0.59639 -0.21679,0.89648 -0.007,0.0325 -0.0126,0.0652 -0.0195,0.0977 v 4.35351 h -0.002 c 0,2.45339 -1.21637,3.69645 -2.45507,3.74219 -0.046,0.0877 -0.10839,0.19435 -0.13672,0.25977 0.57245,-0.11005 0.77934,-0.15322 -0.12696,0.31445 -0.19202,0.52216 -0.11844,0.49068 -0.87695,0.48242 -0.007,-8e-5 -0.009,8e-5 -0.0156,0 0,10e-4 2e-5,0.003 0,0.004 0,10e-4 -0.1059,-0.004 -0.1621,-0.004 -0.33363,0.10387 -0.55019,0.0908 -0.67383,-0.0156 -0.0375,-0.002 -0.26488,-0.002 -0.19727,-0.004 -1.39929,0.0163 -2.80631,0.21618 -4.19922,-0.0449 -3.88017,-0.38109 -7.77829,-0.50453 -11.66406,-0.81446 -0.69521,-0.051 -1.39058,-0.10396 -2.08594,-0.15234 -0.21401,-0.016 -0.63136,0.15979 -0.67382,-0.01 -0.1111,0.0304 -0.29555,0.0907 -0.35938,0.11132 -0.35641,-0.0295 -0.88625,0.21866 -1.07031,-0.0879 -0.13503,-0.22481 -0.25192,-0.46104 -0.36914,-0.69726 -0.16028,-0.0234 -0.31979,-0.0499 -0.48047,-0.0703 -0.71471,-0.0907 -1.43095,-0.16962 -2.14649,-0.2539 -0.52446,-0.0617 -0.97892,-0.17742 -1.38086,-0.32617 -0.68489,-0.0755 -1.36979,-0.15108 -2.05468,-0.22657 -2.86572,-0.30784 -2.27736,-0.24351 -5.52344,-0.59765 -0.67586,-0.0737 -1.35693,-0.11003 -2.02734,-0.22266 -0.86074,-0.14483 -1.7119,-0.32379 -2.55274,-0.53711 -0.49685,0.0249 -0.85452,0.0587 -1.50195,0.13672 -0.5003,0.0586 -0.99974,0.11682 -1.5,0.17578 -0.36235,0.0427 -0.72392,0.10623 -1.08789,0.12891 -1.68802,0.10809 -3.37352,0.0292 -5.06055,-0.0449 -1.20359,-0.0818 -2.33101,-0.29032 -3.47266,-0.67969 -0.72737,-0.24809 -1.4194,-0.61461 -2.10546,-0.95703 -0.93831,-0.53806 -1.3396,-0.89083 -1.97071,-1.8418 -0.13077,-0.19706 -0.25486,-0.4097 -0.30664,-0.64062 -0.003,-0.0155 -0.004,-0.0219 -0.008,-0.0371 -0.49113,0.17786 -1.05632,-0.0446 -1.36524,-0.66993 -0.0795,0.17941 -0.16525,0.37055 -0.22656,0.5293 0.24035,0.0987 0.42829,0.1639 0.77539,0.33399 -0.0631,0.034 -0.12829,0.0675 -0.1914,0.10156 -0.79529,0.428 -0.79141,0.10155 -0.58399,-0.43555 -1.3755,-0.56474 -1.26309,-0.24993 -1.26953,-1.53906 -0.0113,-1.19804 -0.0354,-2.39647 0.0274,-3.59375 0.0113,-0.53303 0.0537,-1.08968 -0.0234,-1.62305 -0.14778,-1.02455 -0.15689,-0.31001 -0.21094,-1.63867 -0.008,-0.17019 0.018,-0.34006 0.0293,-0.50977 0,-0.20424 0.0199,-0.40956 0.008,-0.61328 -0.0128,-0.16055 -0.0655,-0.31662 -0.0957,-0.47461 -0.008,-0.0373 -0.28554,-1.42226 -0.29688,-1.5039 -0.076,-0.50468 -0.14548,-1.01179 -0.19726,-1.51953 -0.0556,-0.54596 -0.0831,-1.09343 -0.125,-1.64063 h 0.004 c -0.0337,-0.43796 0.0212,-0.80145 0.13086,-1.0957 -0.15673,-0.0706 -0.31589,-0.13618 -0.46875,-0.21485 -0.045,-0.0238 0.0232,-0.10214 0.0254,-0.15429 0.0227,-0.53798 -0.0574,-1.09398 -0.18555,-1.61328 0.58156,0.23036 -0.0936,-0.008 -0.39257,-0.47852 -0.45579,-0.71731 -0.36715,-1.90968 -0.25,-3.02734 -0.082,-0.27398 -0.16314,-0.54807 -0.2461,-0.82227 -0.0438,-0.13447 -0.0787,-0.27277 -0.13086,-0.4043 -0.0635,-0.1607 -0.16306,-0.30749 -0.21484,-0.47265 -0.23773,-0.75859 -0.21571,-1.50099 -0.13672,-2.28321 0.004,-0.0493 -0.009,-0.10866 -0.0176,-0.16601 -0.0382,-0.15456 -0.0698,-0.26101 -0.13476,-0.58984 -0.19578,-0.99005 -0.13282,-2.04892 -0.13281,-3.04297 h -0.002 c 0,-0.464 0.087,-0.84105 0.22852,-1.13282 l -1.2736,-6.39628 -0.0937,6.94727 c -0.0517,3.82087 0.40359,12.04177 1.01172,18.26953 0.86116,8.81971 0.83351,11.65013 -0.12305,12.80273 -0.67548,0.81388 -1.96032,1.41083 -2.85547,1.32617 -7.00788,-0.66134 -27.45882,-1.80098 -41.12695,-2.29297 -9.075,-0.32666 -17.24256,-0.82591 -18.15039,-1.10937 -2.43114,-0.75859 -2.28581,0.2518 -6.25781,-43.44336 -0.22498,-2.47502 -0.15056,3.37498 0.16601,13 1.01374,30.82182 1.08868,29.45024 -1.63867,29.83594 -1.309,0.18512 -5.02192,-0.62695 -8.25195,-1.80469 -5.38292,-1.96271 -6.05725,-2.01101 -8.0918,-0.58594 -2.7002,1.89113 -10.19001,2.00743 -23.58398,0.36719 -12.46077,-1.52591 -15.51509,-3.26306 -17.79102,-10.11523 -1.71998,-5.17841 -5.3893,-12.09857 -5.39648,-10.17774 -0.002,0.56107 0.91718,4.34367 2.04297,8.40625 1.12544,4.06254 1.82328,7.9676 1.55078,8.67774 -1.09733,2.85959 -6.73838,4.40707 -19.78907,5.42773 -7.3195,0.57245 -17.13359,1.44602 -21.80859,1.94141 -14.75238,1.56325 -20.77382,1.31801 -21.95898,-0.89649 -1.08742,-2.03187 -7.26454,-24.42084 -9.53907,-34.57617 -2.13824,-9.54675 -2.85659,-21.47349 -1.58007,-26.21094 0.98548,-3.65873 1.62136,-4.34593 4.85546,-5.24414 2.04711,-0.56851 5.07266,-1.04933 6.72266,-1.06445 1.65,-0.0165 5.025,-0.49678 7.5,-1.06836 2.475,-0.57154 8.325,-1.64456 13,-2.38281 8.47508,-1.33841 37.96384,-7.39461 38.9707,-8.00391 0.29165,-0.1765 5.9293,-1.04714 12.5293,-1.93359 6.6,-0.88645 18.3,-2.50664 26,-3.60157 29.0362,-4.12902 54.66484,-7.65648 65,-8.94726 3.85002,-0.48087 17.35,-1.59556 30,-2.47656 12.65,-0.88097 29.07497,-2.05347 36.5,-2.60547 7.425,-0.552 26.77498,-1.64324 43,-2.42383 16.22498,-0.78059 33.79564,-1.91055 39.04688,-2.51172 4.0469,-0.46333 6.57603,-0.6767 8.48437,-0.61133 z m 57.40039,11.92578 c 0.3696,5.1e-4 0.71402,0.0476 1.01953,0.14454 1.7579,0.55757 1.96278,1.20191 1.43164,4.52343 -0.34065,2.1303 -0.12497,5.29456 0.48047,7.03125 1.67256,4.79792 0.18521,6.49359 -6.92578,7.89258 -3.37689,0.66437 -6.76978,1.45091 -7.53906,1.74609 -2.67043,1.02475 -1.38299,-1.63482 1.51758,-3.13476 3.50498,-1.81247 5.47105,-6.95768 4.54492,-11.89453 -0.56179,-2.99448 -0.29854,-3.70951 1.89453,-5.14649 1.13842,-0.7463 2.46738,-1.16363 3.57617,-1.16211 z m -44.47461,8.06446 c 1.10828,-0.15622 3.71587,2.15574 11.79492,9.74218 11.5551,10.8508 11.74805,11.10507 11.74805,15.44336 0,5.77433 -0.9006,5.70998 -13.5,-0.96289 l -10,-5.29687 0.30664,-5.875 c 0.16842,-3.23172 -0.19235,-6.80655 -0.80078,-7.94336 -0.64895,-1.21266 -0.77471,-2.96186 -0.30469,-4.23242 0.18364,-0.49642 0.38643,-0.82293 0.75586,-0.875 z m 34.16016,18.58203 c 0.37866,-0.0444 0.72262,0.0215 0.94922,0.24805 0.26456,0.2642 -0.16377,1.01676 -0.95313,1.67187 -0.98555,0.81781 -1.63983,0.85972 -2.08789,0.13477 -0.48985,-0.79263 0.9558,-1.92148 2.0918,-2.05469 z m -33.92969,6.01953 c 0.89775,-0.0241 21.12004,10.38151 22.12891,11.38672 0.95161,0.94824 1.0744,2.25369 0.4414,4.70898 -0.77661,3.01255 -1.56085,3.64444 -6.91992,5.56641 h -0.002 c -3.3241,1.19218 -8.25403,2.82422 -10.95703,3.62695 l -4.91602,1.45899 0.0195,-13.3711 c 0.01,-7.35458 0.10228,-13.37393 0.20508,-13.37695 z m 22.16016,24.27148 c 0.25467,-0.011 0.44069,0.003 0.55078,0.0449 1.1873,0.45558 1.60156,1.97406 1.60156,5.87109 v 5.25586 l -10.25,9.79883 c -10.94166,10.46135 -15.69975,14.3902 -15.83203,13.07031 -0.0971,-0.96945 -0.0393,-6.64489 0.1875,-18.41211 l 0.16601,-8.59375 11.26368,-3.80273 c 5.42041,-1.82955 10.52975,-3.15569 12.3125,-3.23243 z m -143.40235,17.54102 c 0.1027,0.0729 0.18672,0.13056 0.30664,0.21875 -0.0357,-0.0643 -0.0462,-0.15439 -0.11328,-0.17969 -0.0623,-0.0221 -0.12915,-0.0245 -0.19336,-0.0391 z m 52.47266,17.46094 c 2.15047,-0.005 5.24697,0.26022 9.70703,0.66015 31.22491,2.80003 43.89615,4.18131 44.57227,4.85743 0.39911,0.39872 0.16747,1.84601 -0.51368,3.21484 -1.18862,2.3887 -1.63879,2.49296 -11.21093,2.60937 -10.07732,0.12273 -32.56151,-1.02358 -42.22266,-2.15234 -5.10769,-0.59671 -5.24913,-0.69917 -5.23438,-3.79102 0.0196,-4.06825 0.17131,-5.38738 4.90235,-5.39843 z m -12.40039,4.34375 c -0.16669,0.20116 -0.33319,0.40245 -0.5,0.60351 -0.0254,0.11035 -0.0537,0.20805 -0.0801,0.31446 0.17766,0.15534 0.54007,0.16259 1.00195,0.0859 -0.17229,-0.28613 -0.31813,-0.61629 -0.42187,-1.0039 z m -0.59766,0.98047 c -0.0473,0.18773 -0.0941,0.3735 -0.14648,0.53906 0.13511,0.054 0.26342,0.11451 0.41601,0.15039 -0.10583,-0.21831 -0.19219,-0.45221 -0.26953,-0.68945 z m 0.66602,1.30078 c -0.0976,0.0118 -0.19524,0.0153 -0.29297,0.0254 0.16697,0.0875 0.34159,0.15956 0.5293,0.20312 0.002,-0.006 0.004,-0.0132 0.006,-0.0195 -0.0854,-0.0607 -0.16798,-0.12738 -0.24218,-0.20898 z m 119.84375,12.89062 c 0.0776,-0.0419 0.16857,0.10975 0.26367,0.47461 0.25285,0.97297 0.23655,2.32297 -0.0371,3 -0.2739,0.67703 -0.47984,-0.1195 -0.46094,-1.76953 0.0127,-1.03124 0.10503,-1.63532 0.23438,-1.70508 z m 22.0957,111.66406 c 0.0872,0.90511 0.18153,1.81576 0.29492,2.78516 -10e-4,-0.0573 -0.003,-0.11458 -0.004,-0.17187 -0.0602,-1.04478 -0.14682,-1.78923 -0.29102,-2.61329 z m -528.523437,0.74414 c -3.7e-5,0.14447 2.2e-5,0.28322 0,0.42969 0.871065,-0.0653 1.732497,-0.12835 2.591797,-0.1582 0.01164,-0.003 0.02352,-0.005 0.03516,-0.008 -0.875264,-0.0918 -1.751597,-0.17279 -2.626953,-0.26368 z m 501.666017,10.67774 c -0.0442,0.0791 -0.12185,0.092 -0.27344,0.0742 0.30376,0.23991 0.25474,0.38529 0.30664,-0.0723 -0.0154,-7.9e-4 -0.018,3.5e-4 -0.0332,-0.002 z" />
      <g
         id="g1240">
        <path
           style="fill:none;stroke:#000000;stroke-width:0.264583px;stroke-linecap:butt;stroke-linejoin:miter;stroke-opacity:1"
           d="m 76.238631,153.67998 -4.34313,-13.89802"
           id="path1057" />
        <path
           style="fill:none;stroke:#000000;stroke-width:0.264583px;stroke-linecap:butt;stroke-linejoin:miter;stroke-opacity:1"
           d="M 93.544333,153.14544 92.475255,136.44109"
           id="path1059" />
        <path
           style="fill:none;stroke:#000000;stroke-width:0.264583px;stroke-linecap:butt;stroke-linejoin:miter;stroke-opacity:1"
           d="m 111.25094,151.67546 -1.33635,-17.10525"
           id="path1061" />
        <path
           style="fill:none;stroke:#000000;stroke-width:0.264583px;stroke-linecap:butt;stroke-linejoin:miter;stroke-opacity:1"
           d="m 129.02436,151.40819 0.66818,-18.24115"
           id="path1063" />
        <path
           style="fill:#ff0000;stroke:#414141;stroke-width:0.954475;stroke-linecap:round;stroke-linejoin:round;paint-order:fill markers stroke"
           d="m 232.27045,605.67557 c -1.91682,-0.24756 -3.11281,-0.67754 -3.72672,-1.33983 -0.81355,-0.87766 -3.03497,-8.16663 -6.59751,-21.64786 -4.33073,-16.38822 -5.38883,-22.65246 -5.41736,-32.0723 -0.0128,-4.2424 0.0678,-5.49617 0.44675,-6.9448 0.68578,-2.62161 1.43614,-3.94822 2.60468,-4.60498 1.47179,-0.82719 4.73398,-1.52999 9.15654,-1.97265 2.15289,-0.21549 5.90308,-0.78755 8.33376,-1.27124 2.43068,-0.48369 7.71504,-1.44681 11.74303,-2.14027 4.02798,-0.69346 10.72557,-1.93781 14.88352,-2.76523 4.15796,-0.82741 7.60712,-1.4572 7.66479,-1.39952 0.0577,0.0577 3.71709,11.66077 8.13203,25.78465 4.41493,14.12388 8.12523,25.75126 8.24511,25.83861 0.26751,0.19492 3.27789,12.17258 3.61379,14.37846 0.26916,1.7676 0.10875,2.43349 -0.78052,3.24012 -2.39887,2.17595 -7.88053,3.24752 -23.0709,4.50999 -4.30578,0.35785 -11.29477,0.98496 -15.5311,1.39359 -12.19251,1.17605 -16.66022,1.40585 -19.69989,1.01326 z"
           id="path1200"
           transform="scale(0.26458333)" />
        <path
           style="fill:#ff0000;stroke:#414141;stroke-width:0.954475;stroke-linecap:round;stroke-linejoin:round;paint-order:fill markers stroke"
           d="m 412.07952,606.28816 c -6.28378,-0.48116 -16.99315,-1.06192 -29.92577,-1.62284 -18.33363,-0.79518 -22.53854,-1.06914 -23.81393,-1.55158 -1.43252,-0.54186 -1.87701,-3.22098 -3.72407,-22.44612 -0.78926,-8.21504 -4.53221,-63.59965 -4.31295,-63.81891 0.21876,-0.21876 38.53258,-5.3948 44.35159,-5.99172 5.36731,-0.55059 19.98224,-1.71011 20.09783,-1.59453 0.19953,0.19954 5.12022,64.89901 5.39227,70.90009 0.15427,3.40295 0.51729,8.80095 0.80671,11.99556 0.28943,3.1946 0.54249,7.23363 0.56236,8.97561 0.0403,3.53022 -0.15648,4.12107 -1.68221,5.05137 -0.9316,0.56803 -1.56903,0.5765 -7.75183,0.10307 z"
           id="path1202"
           transform="scale(0.26458333)" />
        <path
           style="fill:#ff0000;stroke:#414141;stroke-width:0.954475;stroke-linecap:round;stroke-linejoin:round;paint-order:fill markers stroke"
           d="m 544.66204,602.23738 c -0.71722,-0.17027 -14.04065,-1.12161 -26.26396,-1.87534 -16.2079,-0.99943 -26.72263,-1.75415 -27.64595,-1.98436 -1.29685,-0.32333 -1.40884,-1.19995 -1.6575,-12.97438 -0.12246,-5.79858 -0.33377,-11.87844 -0.46958,-13.51079 -0.19848,-2.3856 -0.0134,-9.295 0.94358,-35.2156 0.65477,-17.73624 1.24592,-32.30312 1.31366,-32.37086 0.0677,-0.0677 4.72392,-0.36111 10.34707,-0.65194 19.1834,-0.99218 33.40852,-1.93165 40.49233,-2.67424 7.0301,-0.73696 10.22079,-0.37523 12.93574,1.46654 1.52428,1.03405 2.21062,1.96568 2.21062,3.00068 0,0.82993 -0.10647,0.94872 -1.85194,2.06619 -1.65346,1.05857 -1.17441,3.40828 0.7825,3.83809 0.39549,0.0869 0.98834,0.47795 1.31745,0.86907 0.50703,0.60257 0.62348,1.09131 0.76273,3.2013 0.0904,1.36958 0.27822,2.8853 0.41741,3.36825 0.44055,1.52855 0.21309,1.77448 -2.58533,2.79528 -1.08677,0.39642 -1.48936,0.67919 -1.60115,1.1246 -0.22356,0.89072 0.19274,1.40608 1.9314,2.39104 2.48412,1.40726 2.62132,1.69802 2.72326,5.77106 0.12833,5.12737 -0.0489,5.69218 -2.62487,8.36432 -2.44722,2.5386 -2.81271,3.23906 -2.25395,4.31959 0.65325,1.26324 0.92622,4.53631 0.83473,10.00887 -0.1012,6.05322 -0.11897,6.11408 -2.33903,8.01074 -0.77317,0.66054 -1.40576,1.3599 -1.40576,1.55413 0,0.19424 0.39335,0.7111 0.87411,1.14858 1.40119,1.27506 2.13745,4.38898 2.14355,9.06582 0.005,4.10086 -0.56895,6.80582 -1.87474,8.83032 -0.48971,0.75924 -0.89039,1.60264 -0.89039,1.87422 0,0.27157 0.30035,1.24137 0.66743,2.15509 0.48887,1.21686 0.70026,2.27675 0.79017,3.96181 0.10748,2.01451 0.0398,2.54822 -0.54454,4.29315 -0.86087,2.57073 -2.42459,5.37816 -3.7884,6.80152 -0.97434,1.01687 -1.1867,1.12294 -2.19526,1.09648 -0.61412,-0.0161 -1.28704,-0.0698 -1.49539,-0.11923 z"
           id="path1204"
           transform="scale(0.26458333)" />
        <path
           style="fill:#ff0000;stroke:#414141;stroke-width:0.954475;stroke-linecap:round;stroke-linejoin:round;paint-order:fill markers stroke"
           d="m 521.68107,615.23751 c -11.6718,-0.45884 -27.48079,-1.6137 -30.85822,-2.25422 -2.51168,-0.47633 -2.92041,-1.20635 -2.65325,-4.73891 0.25963,-3.43289 1.18783,-3.96877 6.48989,-3.74683 8.62172,0.3609 48.72899,4.37242 51.64405,5.16542 1.05495,0.28699 1.14163,1.40864 0.24973,3.23162 -0.84556,1.72826 -1.54755,2.09965 -4.51088,2.3865 -2.73188,0.26445 -13.08987,0.24228 -20.36132,-0.0436 z"
           id="path1206"
           transform="scale(0.26458333)" />
      </g>
    </g>
    <path
       style="fill:#ffffff;stroke:none;stroke-width:3.8179;stroke-linecap:round;stroke-linejoin:round;paint-order:fill markers stroke"
       d="m 140.97037,193.53358 c -0.37147,-0.37148 -8.51583,-0.71241 -18.09856,-0.75762 -21.91198,-0.10338 -23.858467,-0.82623 -28.782632,-10.6888 -4.308931,-8.63033 -16.712654,-44.58104 -15.695989,-45.49295 1.341037,-1.20287 17.910056,-3.96526 41.702681,-6.95268 12.50063,-1.56958 22.79882,-2.79842 22.88486,-2.73074 0.872,0.68593 4.45965,63.91906 3.73387,65.81041 -0.57701,1.50368 -4.49835,2.05826 -5.74423,0.81238 z"
       id="path1259"
       transform="scale(0.26458333)" />
    <path
       style="fill:#ffffff;stroke:none;stroke-width:3.8179;stroke-linecap:round;stroke-linejoin:round;paint-order:fill markers stroke"
       d="m 239.52053,200.22885 c -1.2643,-0.50773 -6.94641,-1.11348 -12.62691,-1.34612 -10.42625,-0.427 -13.86372,-1.11171 -13.86372,-2.76151 0,-0.49614 -0.68185,-0.90208 -1.51523,-0.90208 -1.0731,0 -1.52243,-1.1053 -1.53992,-3.78807 -0.0136,-2.08344 -0.45566,-5.65419 -0.98239,-7.935 -1.10779,-4.79688 -1.23717,-6.0142 -4.05375,-38.14373 -1.16236,-13.25935 -1.92135,-24.29994 -1.68664,-24.53465 0.23471,-0.23471 10.37207,-1.07047 22.52747,-1.85725 12.1554,-0.78679 26.27053,-1.70348 31.36697,-2.0371 l 9.26625,-0.60659 -0.45794,9.90423 c -0.25186,5.44733 -0.93776,18.08648 -1.52421,28.08699 -0.58646,10.00051 -1.19659,24.25675 -1.35584,31.68054 -0.2145,9.99875 -0.64339,13.71647 -1.65446,14.34135 -0.81764,0.50533 -1.71018,0.35866 -2.22607,-0.36581 -0.66348,-0.93174 -0.9788,-0.91949 -1.37353,0.0533 -0.6078,1.49792 -14.69145,1.66068 -18.30008,0.21149 z"
       id="path1261"
       transform="scale(0.26458333)" />
    <path
       style="fill:#008000;fill-opacity:1;stroke:#000000;stroke-width:0.264583px;stroke-linecap:butt;stroke-linejoin:miter;stroke-opacity:1"
       d="M 106.64054,86.328056 C 72.266767,79.430875 36.94982,78.366131 -0.26726951,82.051746 L 0,106.64054 h 106.64054 z"
       id="path1271"
       sodipodi:nodetypes="ccccc" />
    <path
       style="fill:#b3b3b3;fill-opacity:1;stroke:none;stroke-width:3.8179;stroke-linecap:round;stroke-linejoin:round;stroke-opacity:1;paint-order:fill markers stroke"
       d="m 370.72674,319.31989 c -2.43796,-0.44243 -4.53582,-0.93104 -4.66191,-1.08581 -0.12609,-0.15477 -0.53501,-20.96428 -0.9087,-46.24334 l -0.67944,-45.96194 3.14205,-3.78808 c 1.72812,-2.08344 3.53081,-3.78807 4.00597,-3.78807 0.47515,0 1.12744,2.38649 1.44953,5.3033 0.54896,4.97145 2.70737,96.03979 2.28156,96.26463 -0.10803,0.0571 -2.19111,-0.25826 -4.62906,-0.70069 z"
       id="path1273"
       transform="scale(0.26458333)" />
    <path
       style="fill:#ff0000;fill-opacity:1;stroke:none;stroke-width:0.431507;stroke-linecap:round;stroke-linejoin:round;stroke-opacity:1;paint-order:fill markers stroke"
       d="m 208.05458,181.29792 c -0.2882,-0.36637 -0.40478,-1.04969 -0.30938,-1.81326 0.0611,-0.48919 0.02,-0.73911 -0.22819,-1.38796 -0.20603,-0.53857 -0.33635,-1.17428 -0.40798,-1.99013 -0.20417,-2.32545 -0.24182,-3.63743 -0.11484,-4.00167 0.10122,-0.29037 0.0623,-0.64303 -0.21162,-1.91615 -0.30076,-1.39806 -0.55128,-4.08628 -2.40934,-25.8545 -1.14052,-13.36181 -2.05436,-24.31145 -2.03074,-24.33253 0.0236,-0.0211 4.56405,-0.32922 10.08986,-0.68477 5.52581,-0.35554 14.28547,-0.92528 19.46591,-1.26607 5.18045,-0.34079 11.24285,-0.7225 13.47201,-0.84824 6.73937,-0.38015 21.26377,-1.12389 21.31968,-1.09171 0.042,0.0242 -1.79614,46.16027 -1.86625,46.84187 l -0.0621,0.60366 -0.22787,-0.28969 c -0.12534,-0.15934 -0.30182,-0.2897 -0.3922,-0.2897 -0.12339,0 -0.15083,-0.10663 -0.11016,-0.42814 0.0298,-0.23547 0.0834,-1.09603 0.11907,-1.91234 0.0357,-0.81631 0.2939,-5.56862 0.57377,-10.56068 0.77863,-13.88853 1.05045,-19.03183 1.36059,-25.74524 0.15665,-3.39084 0.31258,-6.58901 0.3465,-7.10706 0.0518,-0.79171 0.0341,-0.9419 -0.11098,-0.9419 -0.50107,0 -42.74202,2.76506 -48.86451,3.19863 -7.4753,0.52938 -13.58546,1.08008 -14.08318,1.26932 l -0.27239,0.10356 0.0778,1.56747 c 0.30822,6.21039 0.82625,12.86313 2.35348,30.22403 1.61829,18.39607 2.0573,22.9029 2.56905,26.37317 0.15742,1.06749 0.31622,2.08217 0.35289,2.25485 0.0841,0.39607 -0.0981,0.40757 -0.39887,0.0252 z"
       id="path1275"
       transform="scale(0.26458333)" />
    <path
       style="fill:#ffffff;fill-opacity:1;stroke:none;stroke-width:0.431507;stroke-linecap:round;stroke-linejoin:round;stroke-opacity:1;paint-order:fill markers stroke"
       d="m 218.14083,199.15315 c -1.2625,-0.15949 -2.54084,-0.52939 -3.65343,-1.05718 -1.19827,-0.56843 -1.63046,-0.90678 -2.11663,-1.65708 -0.283,-0.43673 -0.40559,-0.5364 -0.61139,-0.49706 -0.16424,0.0314 -0.38585,-0.0589 -0.61223,-0.24935 -0.31706,-0.26679 -0.36608,-0.27844 -0.46063,-0.10949 -0.0915,0.16357 -0.16199,0.17053 -0.52236,0.0516 -0.2291,-0.0756 -0.47311,-0.24316 -0.54225,-0.37234 -0.0829,-0.15489 -0.11446,-1.01673 -0.0927,-2.53113 0.0347,-2.41846 -0.11418,-4.61554 -0.40326,-5.94969 -0.20419,-0.94235 -0.35725,-3.62715 -0.17574,-3.08257 0.35714,1.07149 0.75823,4.20337 0.9635,7.52332 0.2109,3.41106 0.41876,3.89764 1.74167,4.07716 0.83129,0.11281 1.17264,0.37429 1.36937,1.04896 0.18442,0.63247 0.60724,0.95996 1.7149,1.32825 1.55045,0.51552 7.15029,1.14473 10.22282,1.14865 0.48665,5.7e-4 0.88482,0.0423 0.88482,0.0926 0,0.29312 -5.8378,0.47139 -7.70645,0.23533 z"
       id="path1279"
       transform="scale(0.26458333)" />
    <path
       style="fill:#ffffff;fill-opacity:1;stroke:none;stroke-width:0.431507;stroke-linecap:round;stroke-linejoin:round;stroke-opacity:1;paint-order:fill markers stroke"
       d="m 208.05478,181.13003 c -0.20116,-0.3275 -0.24552,-0.57724 -0.24587,-1.38422 -2.7e-4,-0.61228 -0.069,-1.17356 -0.18163,-1.48421 -0.0997,-0.27476 -0.25242,-0.88489 -0.33946,-1.35584 -0.20259,-1.09617 -0.33156,-4.37008 -0.19563,-4.96638 0.0975,-0.42778 0.10949,-0.39165 0.1893,0.57085 0.1294,1.56035 0.61025,5.52163 0.87701,7.22478 0.13061,0.83397 0.21594,1.57893 0.1896,1.65546 -0.0263,0.0765 -0.15833,-0.0407 -0.29332,-0.26044 z"
       id="path1281"
       transform="scale(0.26458333)" />
    <path
       style="fill:#ffffff;fill-opacity:1;stroke:none;stroke-width:0.431507;stroke-linecap:round;stroke-linejoin:round;stroke-opacity:1;paint-order:fill markers stroke"
       d=""
       id="path1283"
       transform="scale(0.26458333)" />
    <path
       style="fill:#ffffff;fill-opacity:1;stroke:none;stroke-width:0.431507;stroke-linecap:round;stroke-linejoin:round;stroke-opacity:1;paint-order:fill markers stroke"
       d="m 206.81091,169.88433 c -0.30634,-1.92596 -0.38675,-2.66501 -0.82597,-7.59228 -0.69701,-7.81906 -3.32346,-38.73158 -3.49327,-41.11473 l -0.0783,-1.09829 0.72811,-0.0716 c 0.40046,-0.0394 1.88408,-0.14848 3.29693,-0.2425 4.42541,-0.29448 28.72555,-1.86847 33.45834,-2.16719 6.17179,-0.38955 21.58699,-1.20648 22.30265,-1.18194 l 0.58169,0.0199 -0.51376,0.0403 c -0.28257,0.0222 -6.0624,0.39997 -12.84408,0.83953 -29.45553,1.90921 -37.92259,2.50344 -43.05701,3.0218 -1.51534,0.15299 -2.89116,0.32986 -3.05738,0.39306 -0.29242,0.11118 -0.30026,0.13809 -0.24186,0.83002 0.0332,0.39331 0.1131,1.71695 0.17756,2.94142 0.30837,5.85768 1.5398,20.80916 3.31448,40.24299 0.31529,3.45264 0.55814,6.38109 0.53966,6.50766 -0.0185,0.12657 -0.148,-0.48914 -0.28783,-1.36824 z"
       id="path1285"
       transform="scale(0.26458333)" />
    <path
       style="fill:#ffffff;fill-opacity:1;stroke:none;stroke-width:0.431507;stroke-linecap:round;stroke-linejoin:round;stroke-opacity:1;paint-order:fill markers stroke"
       d="m 264.40564,163.07364 -0.31637,-0.30302 0.34696,-6.3759 c 0.19084,-3.50674 0.54977,-10.07499 0.79763,-14.59611 0.24786,-4.52111 0.52997,-9.81287 0.62691,-11.75946 0.50358,-10.11241 0.63087,-12.78447 0.63087,-13.24289 v -0.50261 l -0.59939,-0.0419 -0.59939,-0.0419 0.67278,-0.0211 0.67277,-0.0211 -0.0753,1.96943 c -0.76943,20.12744 -1.75943,44.72375 -1.814,45.06844 -0.0204,0.12905 -0.10507,0.0966 -0.34349,-0.13177 z"
       id="path1287"
       transform="scale(0.26458333)" />
    <path
       style="fill:#ffffff;fill-opacity:1;stroke:none;stroke-width:0.431507;stroke-linecap:round;stroke-linejoin:round;stroke-opacity:1;paint-order:fill markers stroke"
       d="m 263.83381,177.43591 c -0.0395,-0.24215 -0.1504,-0.49904 -0.24643,-0.57084 -0.15668,-0.11716 -0.15674,-0.58192 -6.4e-4,-4.5261 0.0957,-2.41754 0.20597,-4.57534 0.24509,-4.79512 l 0.0711,-0.39959 0.089,0.45668 c 0.0489,0.25117 0.0919,1.19216 0.0956,2.0911 0.004,0.89893 0.055,1.72483 0.11411,1.83534 0.24276,0.4536 0.0941,5.01603 -0.19575,6.00631 l -0.10023,0.34251 z"
       id="path1289"
       transform="scale(0.26458333)" />
    <path
       style="fill:#ffffff;fill-opacity:1;stroke:none;stroke-width:0.431507;stroke-linecap:round;stroke-linejoin:round;stroke-opacity:1;paint-order:fill markers stroke"
       d="m 255.13177,202.01636 c -1.36278,-0.16427 -10.53505,-0.71171 -12.12829,-0.72387 -1.4305,-0.0109 -1.52005,-0.0251 -1.69047,-0.26841 -0.21806,-0.31126 -0.27956,-0.30762 1.41408,-0.0839 4.1498,0.54824 11.77878,0.36522 14.11766,-0.33868 0.63048,-0.18975 1.08418,-0.47084 1.08418,-0.67171 0,-0.25772 0.46877,-0.6804 0.6043,-0.54487 0.0852,0.0852 0.0692,0.18087 -0.0542,0.32348 -0.29155,0.33693 -0.46455,0.97006 -0.29455,1.07798 0.24281,0.15414 0.34483,0.10593 0.28225,-0.13338 -0.0497,-0.19007 -0.004,-0.22834 0.27569,-0.22834 0.19802,0 0.3633,-0.0727 0.4035,-0.17745 0.0581,-0.15129 0.10697,-0.14093 0.33182,0.0703 0.15845,0.14886 0.47088,0.2711 0.7827,0.30625 2.11733,0.23866 2.48534,-1.61505 2.86139,-14.41322 0.0941,-3.20246 0.17962,-6.1566 0.19006,-6.56475 l 0.019,-0.74211 0.0823,0.74211 c 0.0453,0.40815 0.21516,1.35504 0.37756,2.10418 0.49921,2.30282 0.68561,4.13743 0.59208,5.82764 -0.0919,1.66072 -0.10303,2.37811 -0.0435,2.80012 0.0287,0.20313 -0.009,0.27803 -0.131,0.25978 -0.12704,-0.019 -0.26713,0.31998 -0.54261,1.31295 -0.58873,2.12214 -0.6195,2.34172 -0.69953,4.99202 -0.0686,2.27249 -0.0994,2.55626 -0.32348,2.97922 -0.32617,0.61574 -0.9578,1.15839 -1.45743,1.25213 -0.22112,0.0415 -0.40203,0.12108 -0.40203,0.17688 0,0.18417 -0.0422,0.2705 -0.23178,0.47397 -0.16369,0.17569 -0.46897,0.20676 -2.40397,0.24461 -1.21905,0.0238 -2.5761,1e-5 -3.01565,-0.053 z m 3.93885,-0.55193 c 0,-0.1432 -0.33791,-0.25687 -0.48794,-0.16414 -0.0778,0.0481 -0.0417,0.10971 0.0959,0.1636 0.30452,0.11925 0.39201,0.11937 0.39201,5.7e-4 z"
       id="path1291"
       transform="scale(0.26458333)" />
    <path
       style="fill:#ffffff;fill-opacity:1;stroke:none;stroke-width:1;stroke-linecap:round;stroke-linejoin:round;stroke-opacity:1;paint-order:fill markers stroke"
       id="path1293"
       d="m 67.907084,52.98641 c 0.04093,0.03606 0.07225,0.0715 0.124746,0.0904 0.02812,0.01013 0.05984,0.005 0.08881,0.01233 0.06545,0.01654 5.29e-4,0.01095 0.07124,0.01283 0.133435,-0.08692 0.271349,-0.167317 0.400304,-0.260755 0.01074,-0.0078 0.0037,-0.02756 0.01193,-0.03794 0.0046,-0.0057 0.02777,-0.0082 0.02159,-0.0042 -0.123079,0.07838 -0.258728,0.1382 -0.373486,0.228323 -0.01339,0.01053 0.02098,0.02685 0.03126,0.04044 0.01177,0.01558 0.02326,0.03136 0.0349,0.04705 0.0901,0.177125 0.597241,-0.09508 0.479179,-0.191069 -0.551958,-0.44876 -0.420288,0.252074 -0.398254,0.363355 0.0034,0.03373 0.04278,0.09054 0.0074,0.117999 0,0 0.409805,-0.188762 0.409805,-0.188762 v 0 c 0.005,-0.04839 -0.01045,-0.0926 -0.02389,-0.138792 -0.0034,-0.01971 -0.0083,-0.0392 -0.01019,-0.0591 -0.0019,-0.0186 0.01754,-0.0598 -7.94e-4,-0.05602 -0.137403,0.02842 -0.340842,0.26675 -0.397534,0.138401 -0.05669,-0.128347 0.245153,-0.136681 0.370044,-0.200634 0.01587,-0.0081 -0.08893,0.09735 -0.05197,-0.01267 -0.01148,-0.01574 -0.02312,-0.03139 -0.03444,-0.04725 -0.01117,-0.01564 -0.0145,-0.05238 -0.03302,-0.04724 -0.148117,0.04111 -0.286689,0.111434 -0.42672,0.174836 -0.0079,0.0036 -0.0074,0.01572 -0.01127,0.02347 -0.07553,0.149627 -0.07523,0.06309 0.345246,-0.171254 -0.04009,0.07559 -0.0321,0.0011 -0.09822,-0.0031 -0.01426,-7.94e-4 -0.02609,0.01558 -0.04031,0.01447 -0.05276,-0.0042 -0.0825,-0.04749 -0.11666,-0.08029 0,0 -0.379717,0.235185 -0.379717,0.235185 z" />
    <path
       style="fill:#ffffff;fill-opacity:1;stroke:none;stroke-width:1;stroke-linecap:round;stroke-linejoin:round;stroke-opacity:1;paint-order:fill markers stroke"
       id="path1297"
       d="m 68.130882,52.743467 c 0.01196,0.0181 0.02389,0.03622 0.03585,0.05432 0,0 0.38467,-0.224308 0.38467,-0.224308 v 0 c -0.01132,-0.01847 -0.02265,-0.03694 -0.03398,-0.05541 0,0 -0.386533,0.22539 -0.386533,0.22539 z" />
    <path
       style="fill:#ff0000;fill-opacity:1;stroke:none;stroke-width:1;stroke-linecap:round;stroke-linejoin:round;stroke-opacity:1;paint-order:fill markers stroke"
       id="path1303"
       d="m 70.930587,50.85552 c 0.796893,0.03989 1.591601,0.116183 2.386009,0.189118 1.16858,0.111149 2.336472,0.22914 3.505412,0.336542 1.110673,0.102677 2.221111,0.208987 3.333268,0.294503 0.36626,0.02527 0.732618,0.04885 1.098836,0.07474 0,0 0.0026,-0.413359 0.0026,-0.413359 v 0 c -0.366324,-0.01947 -0.732467,-0.04163 -1.098614,-0.06421 -1.112623,-0.06818 -2.224452,-0.14991 -3.332411,-0.274431 -1.168177,-0.115191 -2.337845,-0.214794 -3.505377,-0.336753 -0.795538,-0.07989 -1.591966,-0.154464 -2.385208,-0.254874 0,0 -0.0045,0.448721 -0.0045,0.448721 z" />
    <path
       style="fill:#ff0000;fill-opacity:1;stroke:none;stroke-width:1;stroke-linecap:round;stroke-linejoin:round;stroke-opacity:1;paint-order:fill markers stroke"
       id="path1305"
       d="m 83.664641,51.27948 c -0.334997,-0.0016 -0.382678,7.94e-4 -0.775899,-0.01794 -0.476318,-0.02262 -0.952084,-0.05572 -1.428175,-0.0827 -1.435865,-0.08138 -0.582071,-0.0277 -2.092228,-0.130355 -1.357259,-0.104883 -2.71232,-0.239275 -4.063259,-0.407032 -0.272743,-0.03716 -0.148743,-0.01931 -0.372126,-0.05261 0,0 -0.0052,0.434986 -0.0052,0.434986 v 0 c 0.224097,0.01998 0.09976,0.0091 0.373033,0.03238 1.354559,0.110295 2.710802,0.200007 4.065154,0.313177 1.432661,0.113348 2.865234,0.22779 4.297082,0.351047 0,0 0.0016,-0.440934 0.0016,-0.440934 z" />
    <path
       style="fill:#ff0000;fill-opacity:1;stroke:none;stroke-width:1;stroke-linecap:round;stroke-linejoin:round;stroke-opacity:1;paint-order:fill markers stroke"
       id="path1307"
       d="m 71.137866,51.744755 c 0.07968,-0.0033 0.159293,-0.0093 0.239038,-0.0099 0.273677,-0.0021 0.632188,0.01378 0.896321,0.02432 0.730758,0.02911 1.46117,0.06494 2.191586,0.101452 1.602423,0.09299 3.203734,0.203856 4.805635,0.305165 0.973741,0.07341 1.947297,0.146037 2.923072,0.185504 0.403016,0.01619 0.806482,0.01884 1.208945,0.04681 0.111178,0.01069 0.222636,0.01307 0.334187,0.01606 0,0 0.0016,-0.739301 0.0016,-0.739301 v 0 c -0.110979,-0.0021 -0.221869,-0.007 -0.332882,-0.0079 -0.403413,-0.0052 -0.80667,-0.0032 -1.210117,-0.0034 -0.974347,-0.01251 -1.948233,-0.04887 -2.921294,-0.100131 -1.602393,-0.09094 -3.204104,-0.194749 -4.805852,-0.296336 -0.7308,-0.04714 -1.461122,-0.09733 -2.190853,-0.159171 -0.0472,-0.004 -0.786262,-0.07132 -0.89979,-0.08002 -0.08054,-0.0062 -0.161274,-0.0096 -0.241914,-0.01437 0,0 0.0021,0.731274 0.0021,0.731274 z" />
    <path
       style="fill:#ff0000;fill-opacity:1;stroke:none;stroke-width:1;stroke-linecap:round;stroke-linejoin:round;stroke-opacity:1;paint-order:fill markers stroke"
       id="path1309"
       d="m 83.805815,51.224933 c -0.712915,0.05266 -1.430134,0.02569 -2.143639,7.94e-4 -1.342199,-0.04673 -1.113274,-0.04207 -2.536319,-0.123711 -0.448316,-0.03221 -0.896676,-0.06381 -1.344946,-0.09664 -0.405903,-0.02973 -0.811572,-0.06265 -1.217573,-0.09102 -1.152533,-0.08054 -2.306325,-0.1425 -3.459834,-0.206928 -0.598985,-0.03344 -1.196973,-0.08488 -1.796892,-0.09846 -0.107608,-0.0094 -0.20742,0.0089 -0.304416,0.05378 -0.02797,0.0114 -0.05102,0.03286 -0.0807,0.0396 -0.03201,0.0041 -0.0644,0.0035 -0.09658,0.0021 -0.0011,-2.54e-4 -0.0021,-5.3e-4 -0.0031,-7.94e-4 0,0 -0.0021,0.754419 -0.0021,0.754419 v 0 c 0.0016,-1.87e-4 0.003,-2.64e-4 0.0046,-5.29e-4 0.03619,-0.0011 0.07241,-0.0013 0.108558,-0.0034 0.04022,-0.0046 0.0735,-0.01744 0.105104,-0.04343 0.08326,-0.04887 0.172891,-0.07052 0.270033,-0.07117 0.596911,-0.038 1.195552,-0.01135 1.793074,-0.0099 0.790429,0.01519 1.581316,0.02516 2.371471,0.05148 1.217861,0.04059 2.434791,0.109109 3.649778,0.201808 0.454893,0.03904 0.909786,0.07808 1.364679,0.117113 0.39071,0.03851 0.781008,0.08146 1.172128,0.115541 0.716536,0.06243 1.435857,0.09187 2.152311,0.15494 0,0 -0.0057,-0.745723 -0.0057,-0.745723 z" />
    <path
       style="fill:#ff0000;fill-opacity:1;stroke:none;stroke-width:1;stroke-linecap:round;stroke-linejoin:round;stroke-opacity:1;paint-order:fill markers stroke"
       id="path1311"
       d="m 70.692226,52.065168 c 0.652825,0.04629 1.303729,0.116808 1.956938,0.158718 0.391813,0.02514 0.784119,0.04193 1.176102,0.06428 0.455001,0.02596 0.909897,0.05375 1.364845,0.08063 1.62074,0.109257 3.241556,0.220565 4.859253,0.369181 0.714819,0.06567 0.967843,0.0938 1.656323,0.165269 0.684602,0.07817 1.371005,0.147799 2.052259,0.252585 0.03132,0.0057 0.06263,0.01138 0.09394,0.01707 0,0 0.0098,-0.735965 0.0098,-0.735965 v 0 c -0.03184,-0.0028 -0.06367,-0.0056 -0.09551,-0.0084 -0.684475,-0.05111 -1.370894,-0.07708 -2.055408,-0.128143 -0.899252,-0.05947 -1.798494,-0.119806 -2.698049,-0.17457 -0.815747,-0.04966 -1.632,-0.09092 -2.447589,-0.143118 -0.45734,-0.02927 -0.914362,-0.0633 -1.371544,-0.09496 -0.454639,-0.03946 -0.90986,-0.07271 -1.363916,-0.118398 -0.392105,-0.03945 -0.783188,-0.08859 -1.174287,-0.137009 -0.653204,-0.08087 -1.307981,-0.170114 -1.950858,-0.313471 0,0 -0.01233,0.746274 -0.01233,0.746274 z" />
    <path
       style="fill:#ff0000;fill-opacity:1;stroke:none;stroke-width:1;stroke-linecap:round;stroke-linejoin:round;stroke-opacity:1;paint-order:fill markers stroke"
       id="path1313"
       d="m 83.812524,52.149554 c -1.261874,-0.03145 -2.516274,-0.181126 -3.769285,-0.322921 -1.17611,-0.159478 -2.357091,-0.27777 -3.536945,-0.405077 -1.341147,-0.144711 -0.570852,-0.06399 -1.849647,-0.195289 -0.986319,-0.106085 -1.97677,-0.162507 -2.965272,-0.24193 0,0 -0.0038,0.6736 -0.0038,0.6736 v 0 c 0.988621,0.03167 1.977549,0.0656 2.963693,0.145799 0.959792,0.08012 1.918026,0.16379 2.873629,0.286054 1.056011,0.135112 0.814218,0.121489 1.796272,0.256659 0.238035,0.03276 0.476724,0.06056 0.715087,0.09084 0.238871,0.02768 0.477504,0.05747 0.716611,0.08304 1.01772,0.108831 2.040652,0.186936 3.049918,0.362427 0,0 0.0097,-0.733206 0.0097,-0.733206 z" />
    <path
       style="fill:#ff0000;stroke:#ff0000;stroke-width:0.26458300000000001px;stroke-linecap:butt;stroke-linejoin:miter;stroke-opacity:1"
       d="m 70.9351,50.406794 c -0.04001,0.08063 -0.07312,0.164695 -0.09883,0.25096 -0.09897,0.332043 -0.08637,0.686657 -0.151035,1.027049 -0.01079,0.05678 -0.02378,0.113679 -0.02354,0.171472 2.36e-4,0.05779 0.01516,0.117784 0.05375,0.16081 0.01248,0.01392 0.02715,0.02578 0.03923,0.04005 0.006,0.0071 0.01143,0.01489 0.01528,0.0234 0.0039,0.0085 0.0062,0.01782 0.0059,0.02717 -2.36e-4,0.0087 -0.0027,0.01736 -0.0071,0.02488 -0.0044,0.0075 -0.01075,0.0139 -0.01824,0.01835 -0.0075,0.0045 -0.01612,0.007 -0.02484,0.0073 -0.0087,2.87e-4 -0.01749,-0.0017 -0.02526,-0.0056 -0.0078,-0.004 -0.01452,-0.0099 -0.01942,-0.01711 -0.0049,-0.0072 -0.0079,-0.01568 -0.0087,-0.02436 -8.1e-4,-0.0087 6.11e-4,-0.01756 0.0041,-0.02555 0.0035,-0.008 0.009,-0.01509 0.01591,-0.02041"
       id="path1319"
       inkscape:path-effect="#path-effect1321"
       inkscape:original-d="m 70.9351,50.406794 c -0.03294,0.08365 -0.07624,0.163939 -0.09883,0.25096 -0.05076,0.195562 -0.166981,0.819753 -0.151035,1.027049 1.88e-4,0.0024 0.02641,0.324681 0.03021,0.332282 0.0087,0.0173 0.06383,0.09112 0.06041,0.09062 -0.03094,-0.0046 -0.05576,-0.02836 -0.08363,-0.04254" />
    <path
       style="fill:none;stroke:#ff0000;stroke-width:0.26458300000000001px;stroke-linecap:butt;stroke-linejoin:miter;stroke-opacity:1"
       d="m 83.851884,53.172899 c -0.06846,0.01972 -0.14574,0.0059 -0.20313,-0.0363 -0.05739,-0.04221 -0.0936,-0.111864 -0.09518,-0.183086 -0.0016,-0.0739 0.03137,-0.143484 0.06042,-0.211453 0.07029,-0.164448 0.121247,-0.337181 0.151037,-0.513524 0.01687,-0.09986 0.02697,-0.200856 0.03021,-0.302075 0.04032,-0.140955 0.0806,-0.281922 0.12083,-0.422902 0.02623,-0.09193 0.05256,-0.184172 0.09062,-0.271867 0.01273,-0.02934 0.02695,-0.05881 0.03021,-0.09062 0.0023,-0.02287 -0.0012,-0.04632 -0.01023,-0.06747 -0.009,-0.02115 -0.02349,-0.03995 -0.04161,-0.05409 -0.01813,-0.01414 -0.03989,-0.02359 -0.06259,-0.02719 -0.02271,-0.0036 -0.04632,-0.0013 -0.06793,0.0065 -0.02161,0.0078 -0.04118,0.02125 -0.05629,0.03858 -0.01512,0.01733 -0.02575,0.03853 -0.03059,0.06101 -0.0048,0.02248 -0.0039,0.04618 0.0028,0.06819 0.0066,0.02201 0.01895,0.04229 0.03542,0.05833"
       id="path1327"
       inkscape:path-effect="#path-effect1329"
       inkscape:original-d="m 83.851884,53.172899 c -0.09944,-0.07313 -0.238644,-0.111331 -0.29831,-0.219384 -0.03543,-0.06417 0.03855,-0.141486 0.06042,-0.211453 0.05654,-0.18094 0.119901,-0.326699 0.151037,-0.513524 0.01664,-0.09982 0.0083,-0.20329 0.03021,-0.302075 0.123121,-0.328324 0.06865,-0.135927 0.12083,-0.422902 0.04288,-0.235847 0.0039,-0.06946 0.09062,-0.271867 0.01254,-0.02927 0.06203,-0.08955 0.03021,-0.09062 -0.0819,-0.0028 -0.154054,0.05591 -0.231079,0.08386" />
    <path
       style="fill:none;stroke:#ffffff;stroke-width:0.26458300000000001px;stroke-linecap:butt;stroke-linejoin:miter;stroke-opacity:1"
       d="m 69.924506,46.468834 c -0.117195,0.0112 -0.228298,0.0754 -0.296527,0.171339 -0.04069,0.05722 -0.06626,0.12442 -0.07905,0.193462 -0.01279,0.06904 -0.01309,0.139986 -0.0061,0.209856 0.01392,0.13974 0.0564,0.274829 0.08517,0.412281 0.04166,0.199002 0.05417,0.408179 0,0.604147 -0.0085,0.0307 -0.01857,0.06096 -0.03021,0.09062"
       id="path1331"
       inkscape:path-effect="#path-effect1333"
       inkscape:original-d="m 69.924506,46.468834 c -0.09884,0.05711 -0.239305,0.07256 -0.296527,0.171339 -0.07724,0.133339 -0.03574,0.636883 0,0.815599 0.02339,0.116927 0.0291,0.487749 0,0.604147 -0.03471,0.138843 -0.03021,0.0069 -0.03021,0.09062" />
    <path
       style="fill:none;stroke:#ffffff;stroke-width:0.26458300000000001px;stroke-linecap:butt;stroke-linejoin:miter;stroke-opacity:1"
       d="m 69.924506,46.468834 c -0.114484,0.16676 -0.186027,0.36274 -0.205904,0.564036 -0.02179,0.220625 0.01748,0.443554 0,0.664562 -0.01239,0.156688 -0.05356,0.311055 -0.120833,0.453107"
       id="path1335" />
  </g>
</svg>
